<svg version="1.1" id="Layer_1" xmlns="http://www.w3.org/2000/svg" xmlns:xlink="http://www.w3.org/1999/xlink" x="0px" y="0px"
	 width="100%" viewBox="0 0 1024 1024" enable-background="new 0 0 1024 1024" xml:space="preserve">
<path fill="#021620" opacity="1.000000" stroke="none" 
	d="
M1001.006958,583.000000 
	C1001.006836,664.492432 1001.103638,745.485046 1000.942749,826.477173 
	C1000.898865,848.573547 995.599121,869.679626 987.014343,889.987427 
	C980.601196,905.158447 972.515747,919.346558 962.364075,932.347229 
	C951.308167,946.505798 938.763733,959.190125 924.299744,969.826904 
	C904.351074,984.497192 882.379578,995.195923 858.095886,1000.283081 
	C846.195679,1002.776001 833.960449,1004.137268 821.809204,1004.837036 
	C808.547180,1005.600708 795.207031,1005.005066 781.900940,1005.004578 
	C769.996704,1005.004089 758.092468,1005.007324 746.188232,1005.008545 
	C734.616882,1005.009705 723.045593,1005.011536 711.474243,1005.010742 
	C701.069763,1005.010010 690.663513,1004.888306 680.261536,1005.047607 
	C673.972534,1005.143860 667.690613,1005.924438 661.404724,1005.935730 
	C655.619751,1005.946045 649.834961,1005.075745 644.047974,1005.049500 
	C619.978821,1004.940430 595.908875,1005.003723 571.839233,1005.003723 
	C559.101807,1005.003723 546.364319,1005.002625 533.626892,1005.003845 
	C523.391235,1005.004761 513.155579,1005.009766 502.919952,1005.010315 
	C490.613922,1005.010925 478.307861,1005.008545 466.001831,1005.007935 
	C456.597748,1005.007446 447.193634,1005.007324 437.789551,1005.007751 
	C424.885376,1005.008362 411.981201,1005.010437 399.077026,1005.010498 
	C389.838959,1005.010620 380.598938,1004.893677 371.363556,1005.051270 
	C365.907440,1005.144287 360.458008,1005.943420 355.006836,1005.929504 
	C348.887177,1005.913940 342.771149,1005.114624 336.649597,1005.053711 
	C322.413635,1004.912109 308.175293,1005.009521 293.937897,1005.009460 
	C283.366852,1005.009399 272.795776,1005.007996 262.224731,1005.008118 
	C250.320465,1005.008362 238.416183,1005.009705 226.511917,1005.010376 
	C217.777100,1005.010803 209.037888,1005.189087 200.308319,1004.975098 
	C179.754410,1004.471069 160.064301,999.769653 141.105408,992.004089 
	C126.063591,985.842957 112.092461,977.772400 99.207085,967.809448 
	C83.909866,955.981567 70.465790,942.332092 59.343903,926.552795 
	C41.870655,901.762451 30.497095,874.376221 26.122982,844.281738 
	C25.197586,837.914856 25.040697,831.392334 25.039028,824.941467 
	C24.985003,615.961060 24.927847,406.980530 25.107555,198.000259 
	C25.123257,179.742325 28.626213,161.720551 35.796532,144.899750 
	C41.725948,130.989975 48.181862,117.047218 56.412159,104.428543 
	C74.268845,77.050697 98.122238,55.830055 127.358482,40.828903 
	C147.891907,30.293182 169.598221,23.935993 192.576736,22.014988 
	C199.507187,21.435600 206.476456,21.036993 213.428070,21.035210 
	C416.242432,20.983173 619.056885,20.897234 821.870972,21.126419 
	C844.003052,21.151428 865.406128,26.333210 885.897400,34.940220 
	C910.402405,45.233192 932.072571,59.859703 949.726685,79.597092 
	C960.016846,91.101646 969.062317,103.929672 977.260010,117.042351 
	C987.391235,133.247696 993.939758,151.227066 997.414246,170.070694 
	C999.264709,180.106552 1000.840149,190.373642 1000.858398,200.539383 
	C1001.086914,327.859253 1001.007507,455.179688 1001.006958,583.000000 
M693.086243,701.500000 
	C693.086243,675.332458 693.086243,649.164917 693.086243,622.997375 
	C693.086243,518.665588 693.073425,414.333832 693.099548,310.002045 
	C693.103699,293.422607 699.547913,279.288574 711.494324,268.249939 
	C737.387939,244.323929 773.982727,240.893402 803.681885,259.930481 
	C821.914795,271.617737 832.444092,288.087128 832.412109,310.942566 
	C832.187500,471.440918 832.297058,631.939758 832.300598,792.438477 
	C832.300659,793.938416 832.220215,795.445129 832.330994,796.937256 
	C833.252869,809.354065 844.369385,817.279846 855.888977,813.762878 
	C863.893066,811.319214 868.084412,804.617493 868.084534,794.208984 
	C868.086975,632.210327 868.060303,470.211609 868.127930,308.212952 
	C868.134399,292.701752 864.850586,278.185425 856.815247,264.858765 
	C836.270325,230.784531 805.591492,213.536850 766.336365,211.404037 
	C745.591614,210.276917 725.979614,215.286819 708.137451,226.094681 
	C676.915161,245.007477 658.150024,272.119385 658.067566,309.276917 
	C657.709106,470.774811 657.913635,632.273926 657.915405,793.772644 
	C657.915405,795.439087 657.833557,797.114319 657.971130,798.770447 
	C658.829529,809.102600 668.955383,816.463379 678.941406,814.057129 
	C687.928528,811.891602 693.001343,805.409302 693.027832,795.498840 
	C693.110718,764.499390 693.075684,733.499634 693.086243,701.500000 
M469.431915,309.928711 
	C464.230804,312.527588 458.761963,314.703003 453.872070,317.794159 
	C422.491852,337.631073 405.088806,365.517609 405.155670,403.343475 
	C405.215668,437.277374 405.168121,471.211487 405.178741,505.145508 
	C405.200623,575.013794 405.229584,644.882080 405.255737,714.750366 
	C405.265930,741.896912 405.245941,769.043518 405.305145,796.189941 
	C405.322968,804.366089 409.866150,811.248718 416.459778,813.501648 
	C424.289581,816.176941 431.975769,814.423157 436.813293,807.358032 
	C439.248016,803.802124 440.551392,798.741882 440.557861,794.359192 
	C440.749908,664.196289 440.637695,534.032776 440.896179,403.870117 
	C440.912689,395.556549 441.989014,386.593140 445.205383,379.055603 
	C456.560028,352.445862 484.826508,337.748199 513.019104,338.260620 
	C528.840271,338.548187 543.368286,343.570221 556.111694,353.350891 
	C570.919678,364.716095 579.983521,378.992188 579.980469,398.221954 
	C579.959534,529.219910 579.967285,660.217834 579.985107,791.215759 
	C579.985474,794.043152 579.976990,796.905701 580.386902,799.690918 
	C581.383057,806.458984 586.859253,812.549072 592.869507,813.921265 
	C601.200623,815.823486 608.087646,813.248657 612.699829,806.921875 
	C616.580017,801.599243 615.998779,795.540649 616.000549,789.603577 
	C616.039429,659.271423 616.141418,528.939026 615.813354,398.607758 
	C615.787842,388.479797 614.055481,377.882996 610.738464,368.329742 
	C602.477661,344.538239 585.859253,327.368073 564.031738,315.188690 
	C547.565857,306.001007 529.722046,301.421631 510.963776,301.425140 
	C496.929718,301.427765 483.199951,304.185669 469.431915,309.928711 
M328.970276,518.500000 
	C328.970276,608.824524 328.967102,699.149109 328.983551,789.473633 
	C328.984131,792.636292 328.532806,796.002258 329.445923,798.911255 
	C330.642822,802.724182 332.245361,806.935730 334.994415,809.625854 
	C340.725189,815.233765 347.978333,816.247009 355.272430,812.593811 
	C362.447052,809.000610 365.046539,802.610046 365.044800,794.836792 
	C365.021881,692.687012 365.145142,590.536926 364.835144,488.388092 
	C364.806854,479.058380 363.509308,469.199982 360.305939,460.506531 
	C347.806641,426.585266 322.517365,405.856171 288.326538,396.415375 
	C259.427979,388.435944 231.344009,392.476135 205.586929,407.982422 
	C172.890747,427.666168 155.165146,456.540009 155.132095,495.240753 
	C155.047287,594.562622 155.105331,693.884705 155.107910,793.206665 
	C155.107941,794.872925 155.024658,796.547485 155.157272,798.203979 
	C155.887115,807.321838 163.722153,814.589539 172.840927,814.667786 
	C181.582809,814.742737 189.407791,807.479858 190.197220,798.482910 
	C190.457092,795.521179 190.680481,792.544128 190.683838,789.573792 
	C190.718735,758.641357 190.705353,727.708862 190.705322,696.776428 
	C190.705292,671.176270 190.704895,645.576111 190.705246,619.975952 
	C190.705811,578.162659 190.970657,536.346985 190.589645,494.537140 
	C190.415115,475.385284 197.404892,460.098633 211.558975,447.500427 
	C235.119705,426.529633 273.339111,423.309265 299.895264,440.340210 
	C315.636810,450.435547 326.837952,463.887329 328.642487,483.024811 
	C329.717438,494.425507 328.923828,506.002350 328.970276,518.500000 
M750.065063,471.500000 
	C750.065063,556.661194 750.065063,641.822327 750.065063,726.983521 
	C750.065063,745.315674 750.079041,763.647766 750.056091,781.979919 
	C750.049683,787.120544 751.761353,791.458984 756.272766,794.123840 
	C765.867676,799.791748 775.931396,793.188293 775.931763,781.319763 
	C775.936584,627.496399 775.934937,473.673004 775.934814,319.849640 
	C775.934814,319.016357 775.982483,318.179596 775.923950,317.350403 
	C775.566284,312.287750 771.607178,307.359589 766.845520,306.014648 
	C757.758118,303.447845 750.078979,309.804962 750.074646,320.009766 
	C750.053467,370.173187 750.065063,420.336578 750.065063,471.500000 
M499.712280,789.512085 
	C503.883118,795.422058 508.354767,797.182800 514.530396,795.346863 
	C520.578674,793.548828 523.919006,789.098816 523.919983,782.451843 
	C523.939148,657.192871 523.940125,531.933899 523.920105,406.674927 
	C523.918823,398.625702 518.391052,392.899933 510.855682,392.895325 
	C503.300018,392.890686 497.984375,398.590790 497.983582,406.851898 
	C497.971710,531.944275 497.968567,657.036682 498.028748,782.129089 
	C498.029816,784.373596 498.831360,786.617676 499.712280,789.512085 
M273.019562,661.501160 
	C273.064178,633.518799 273.124969,605.536438 273.148590,577.554077 
	C273.170502,551.583008 273.145294,525.612000 273.158997,499.640930 
	C273.161591,494.761078 272.811829,490.052094 268.602386,486.643372 
	C264.177521,483.060272 259.315735,482.505646 254.307526,484.949890 
	C248.746887,487.663696 247.036011,492.568298 247.038803,498.508240 
	C247.083435,593.130981 247.070251,687.753662 247.070328,782.376404 
	C247.070328,783.209351 247.018341,784.046265 247.080063,784.874634 
	C247.674881,792.860229 255.758636,798.405273 263.374664,796.066528 
	C270.498749,793.878784 273.153748,789.823242 273.146942,780.924011 
	C273.116730,741.449829 273.064087,701.975708 273.019562,661.501160 
z"/>
<path fill="#099B9F" opacity="1.000000" stroke="none" 
	d="
M693.086304,702.000000 
	C693.075684,733.499634 693.110718,764.499390 693.027832,795.498840 
	C693.001343,805.409302 687.928528,811.891602 678.941406,814.057129 
	C668.955383,816.463379 658.829529,809.102600 657.971130,798.770447 
	C657.833557,797.114319 657.915405,795.439087 657.915405,793.772644 
	C657.913635,632.273926 657.709106,470.774811 658.067566,309.276917 
	C658.150024,272.119385 676.915161,245.007477 708.137451,226.094681 
	C725.979614,215.286819 745.591614,210.276917 766.336365,211.404037 
	C805.591492,213.536850 836.270325,230.784531 856.815247,264.858765 
	C864.850586,278.185425 868.134399,292.701752 868.127930,308.212952 
	C868.060303,470.211609 868.086975,632.210327 868.084534,794.208984 
	C868.084412,804.617493 863.893066,811.319214 855.888977,813.762878 
	C844.369385,817.279846 833.252869,809.354065 832.330994,796.937256 
	C832.220215,795.445129 832.300659,793.938416 832.300598,792.438477 
	C832.297058,631.939758 832.187500,471.440918 832.412109,310.942566 
	C832.444092,288.087128 821.914795,271.617737 803.681885,259.930481 
	C773.982727,240.893402 737.387939,244.323929 711.494324,268.249939 
	C699.547913,279.288574 693.103699,293.422607 693.099548,310.002045 
	C693.073425,414.333832 693.086243,518.665588 693.086243,622.997375 
	C693.086243,649.164917 693.086243,675.332458 693.086304,702.000000 
z"/>
<path fill="#0A9A9E" opacity="1.000000" stroke="none" 
	d="
M469.776733,309.758423 
	C483.199951,304.185669 496.929718,301.427765 510.963776,301.425140 
	C529.722046,301.421631 547.565857,306.001007 564.031738,315.188690 
	C585.859253,327.368073 602.477661,344.538239 610.738464,368.329742 
	C614.055481,377.882996 615.787842,388.479797 615.813354,398.607758 
	C616.141418,528.939026 616.039429,659.271423 616.000549,789.603577 
	C615.998779,795.540649 616.580017,801.599243 612.699829,806.921875 
	C608.087646,813.248657 601.200623,815.823486 592.869507,813.921265 
	C586.859253,812.549072 581.383057,806.458984 580.386902,799.690918 
	C579.976990,796.905701 579.985474,794.043152 579.985107,791.215759 
	C579.967285,660.217834 579.959534,529.219910 579.980469,398.221954 
	C579.983521,378.992188 570.919678,364.716095 556.111694,353.350891 
	C543.368286,343.570221 528.840271,338.548187 513.019104,338.260620 
	C484.826508,337.748199 456.560028,352.445862 445.205383,379.055603 
	C441.989014,386.593140 440.912689,395.556549 440.896179,403.870117 
	C440.637695,534.032776 440.749908,664.196289 440.557861,794.359192 
	C440.551392,798.741882 439.248016,803.802124 436.813293,807.358032 
	C431.975769,814.423157 424.289581,816.176941 416.459778,813.501648 
	C409.866150,811.248718 405.322968,804.366089 405.305145,796.189941 
	C405.245941,769.043518 405.265930,741.896912 405.255737,714.750366 
	C405.229584,644.882080 405.200623,575.013794 405.178741,505.145508 
	C405.168121,471.211487 405.215668,437.277374 405.155670,403.343475 
	C405.088806,365.517609 422.491852,337.631073 453.872070,317.794159 
	C458.761963,314.703003 464.230804,312.527588 469.776733,309.758423 
z"/>
<path fill="#099A9E" opacity="1.000000" stroke="none" 
	d="
M328.970245,518.000000 
	C328.923828,506.002350 329.717438,494.425507 328.642487,483.024811 
	C326.837952,463.887329 315.636810,450.435547 299.895264,440.340210 
	C273.339111,423.309265 235.119705,426.529633 211.558975,447.500427 
	C197.404892,460.098633 190.415115,475.385284 190.589645,494.537140 
	C190.970657,536.346985 190.705811,578.162659 190.705246,619.975952 
	C190.704895,645.576111 190.705292,671.176270 190.705322,696.776428 
	C190.705353,727.708862 190.718735,758.641357 190.683838,789.573792 
	C190.680481,792.544128 190.457092,795.521179 190.197220,798.482910 
	C189.407791,807.479858 181.582809,814.742737 172.840927,814.667786 
	C163.722153,814.589539 155.887115,807.321838 155.157272,798.203979 
	C155.024658,796.547485 155.107941,794.872925 155.107910,793.206665 
	C155.105331,693.884705 155.047287,594.562622 155.132095,495.240753 
	C155.165146,456.540009 172.890747,427.666168 205.586929,407.982422 
	C231.344009,392.476135 259.427979,388.435944 288.326538,396.415375 
	C322.517365,405.856171 347.806641,426.585266 360.305939,460.506531 
	C363.509308,469.199982 364.806854,479.058380 364.835144,488.388092 
	C365.145142,590.536926 365.021881,692.687012 365.044800,794.836792 
	C365.046539,802.610046 362.447052,809.000610 355.272430,812.593811 
	C347.978333,816.247009 340.725189,815.233765 334.994415,809.625854 
	C332.245361,806.935730 330.642822,802.724182 329.445923,798.911255 
	C328.532806,796.002258 328.984131,792.636292 328.983551,789.473633 
	C328.967102,699.149109 328.970276,608.824524 328.970245,518.000000 
z"/>
<path fill="#F9F9FA" opacity="1.000000" stroke="none" 
	d="
M750.065063,471.000000 
	C750.065063,420.336578 750.053467,370.173187 750.074646,320.009766 
	C750.078979,309.804962 757.758118,303.447845 766.845520,306.014648 
	C771.607178,307.359589 775.566284,312.287750 775.923950,317.350403 
	C775.982483,318.179596 775.934814,319.016357 775.934814,319.849640 
	C775.934937,473.673004 775.936584,627.496399 775.931763,781.319763 
	C775.931396,793.188293 765.867676,799.791748 756.272766,794.123840 
	C751.761353,791.458984 750.049683,787.120544 750.056091,781.979919 
	C750.079041,763.647766 750.065063,745.315674 750.065063,726.983521 
	C750.065063,641.822327 750.065063,556.661194 750.065063,471.000000 
z"/>
<path fill="#FAF9FA" opacity="1.000000" stroke="none" 
	d="
M499.485840,789.187012 
	C498.831360,786.617676 498.029816,784.373596 498.028748,782.129089 
	C497.968567,657.036682 497.971710,531.944275 497.983582,406.851898 
	C497.984375,398.590790 503.300018,392.890686 510.855682,392.895325 
	C518.391052,392.899933 523.918823,398.625702 523.920105,406.674927 
	C523.940125,531.933899 523.939148,657.192871 523.919983,782.451843 
	C523.919006,789.098816 520.578674,793.548828 514.530396,795.346863 
	C508.354767,797.182800 503.883118,795.422058 499.485840,789.187012 
z"/>
<path fill="#FBFBFC" opacity="1.000000" stroke="none" 
	d="
M273.019562,662.001343 
	C273.064087,701.975708 273.116730,741.449829 273.146942,780.924011 
	C273.153748,789.823242 270.498749,793.878784 263.374664,796.066528 
	C255.758636,798.405273 247.674881,792.860229 247.080063,784.874634 
	C247.018341,784.046265 247.070328,783.209351 247.070328,782.376404 
	C247.070251,687.753662 247.083435,593.130981 247.038803,498.508240 
	C247.036011,492.568298 248.746887,487.663696 254.307526,484.949890 
	C259.315735,482.505646 264.177521,483.060272 268.602386,486.643372 
	C272.811829,490.052094 273.161591,494.761078 273.158997,499.640930 
	C273.145294,525.612000 273.170502,551.583008 273.148590,577.554077 
	C273.124969,605.536438 273.064178,633.518799 273.019562,662.001343 
z"/>
</svg>